<svg xmlns="http://www.w3.org/2000/svg" viewBox="0 0 64 64">
  <rect width="64" height="64" rx="14" fill="#047857"/>
  <rect x="13" y="17" width="38" height="34" rx="7" fill="none" stroke="#fff" stroke-width="4"/>
  <path d="M13 27h38M23 12v10M41 12v10" fill="none" stroke="#fff" stroke-width="4" stroke-linecap="round"/>
  <path d="M25 33h9c5 0 8 2.5 8 6 0 2.2-1.2 4-3.2 5 2.6 1 4.2 3 4.2 5.8 0 4.2-3.3 7.2-9 7.2h-9V33Zm5 4v5h4c2 0 3-1 3-2.5S36 37 34 37h-4Zm0 9v6h5c2.2 0 3.5-1 3.5-3S37.2 46 35 46h-5Z" fill="#fff"/>
</svg>
